{"title":"SALT 2010 Unrated 720p Brrip Original Dual Audio [Eng-Hindi] Xvi","uid":6039664,"size":1627082754,"categoryP":"video","categoryS":"hd___movies","magnet":"?xt=urn:btih:5ee4de959453f9ea665cf605cd9b62a94ea95f38&amp;dn=SALT+2010+Unrated+720p+Brrip+Original+Dual+Audio+%5BEng-Hindi%5D+Xvi&amp;tr=udp%3A%2F%2Ftracker.openbittorrent.com%3A80&amp;tr=udp%3A%2F%2Fopen.demonii.com%3A1337&amp;tr=udp%3A%2F%2Ftracker.coppersurfer.tk%3A6969&amp;tr=udp%3A%2F%2Fexodus.desync.com%3A6969","seeders":0,"leechers":0,"uploader":"amanrulz","files":2,"time":1292339070,"description":"mastitorrents.com &lt;a href=&quot;\nhttp://mastitorrents.com/forums/index.php&quot; rel=&quot;nofollow&quot; target=&quot;_NEW&quot;&gt;\nhttp://mastitorrents.com/forums/index.php&lt;/a&gt;\n\nInfo\n     \n\n     General\nComplete name                    : SALT 2010 Unrated 720p Brrip Original Dual Audio [Eng-Hindi] Xvid [in AVI]-=[AJ]=-.avi\nFormat                           : AVI\nFile size                        : 1.51 GiB\nDuration                         : 1h 44mn\nOverall bit rate                 : 2 071 Kbps\n\nVideo\nID                               : 1\nFormat                           : AVC\nFormat/Info                      : Advanced Video Codec\nFormat profile                   : &lt;a class=&quot;__cf_email__&quot; href=&quot;/cdn-cgi/l/email-protection&quot; data-cfemail=&quot;95ddfcf2fdd5d9a1bba4&quot;&gt;[email&amp;#160;protected]&lt;/a&gt;&lt;script cf-hash='f9e31' type=&quot;text/javascript&quot;&gt;\n/* &lt;![CDATA[ */!function(){try{var t=&quot;currentScript&quot;in document?document.currentScript:function(){for(var t=document.getElementsByTagName(&quot;script&quot;),e=t.length;e--;)if(t[e].getAttribute(&quot;cf-hash&quot;))return t[e]}();if(t&amp;&amp;t.previousSibling){var e,r,n,i,c=t.previousSibling,a=c.getAttribute(&quot;data-cfemail&quot;);if(a){for(e=&quot;&quot;,r=parseInt(a.substr(0,2),16),n=2;a.length-n;n+=2)i=parseInt(a.substr(n,2),16)^r,e+=String.fromCharCode(i);e=document.createTextNode(e),c.parentNode.replaceChild(e,c)}}}catch(u){}}();/* ]]&gt; */&lt;/script&gt;\nFormat settings, CABAC           : Yes\nDuration                         : 1h 44mn\nBit rate                         : 1 774 Kbps\nNominal bit rate                 : 1 813 Kbps\nWidth                            : 1 280 pixels\nHeight                           : 536 pixels\nDisplay aspect ratio             : 2.35:1\nFrame rate                       : 23.976 fps\nResolution                       : 8 bits\nColorimetry                      : 4:2:0\nScan type                        : Progressive\nBits/(Pixel*Frame)               : 0.108\nStream size                      : 1.29 GiB (86%)\n\n\nAudio #1\nID                               : 2\nFormat                           : MPEG Audio\nFormat version                   : Version 1\nFormat profile                   : Layer 3\nMode                             : Joint stereo\nCodec ID                         : A_MPEG/L3\nCodec ID/Hint                    : MP3\nDuration                         : 1h 44mn\nBit rate mode                    : Constant\nBit rate                         : 128 Kbps\nChannel(s)                       : 2 channels\nSampling rate                    : 44.1 KHz\nStream size                      : 95.3 MiB (6%)\nTitle                            : Hindi Audio by Arihant\nWriting library                  : LAME3.98.2\nLanguage                         : Hindi\n\nAudio #2\nID                               : 3\nFormat                           : MPEG Audio\nFormat version                   : Version 1\nFormat profile                   : Layer 3\nMode                             : Joint stereo\nCodec ID                         : A_MPEG/L3\nCodec ID/Hint                    : MP3\nDuration                         : 1h 44mn\nBit rate mode                    : Constant\nBit rate                         : 128 Kbps\nChannel(s)                       : 2 channels\nSampling rate                    : 44.1 KHz\nStream size                      : 95.3 MiB (6%)\nTitle                            : English Audio by Arihant\nWriting library                  : LAME3.98.2\nLanguage                         : English","torrent":{"xt":"urn:btih:5ee4de959453f9ea665cf605cd9b62a94ea95f38","amp;dn":"SALT+2010+Unrated+720p+Brrip+Original+Dual+Audio+%5BEng-Hindi%5D+Xvi","amp;tr":["udp%3A%2F%2Ftracker.openbittorrent.com%3A80","udp%3A%2F%2Fopen.demonii.com%3A1337","udp%3A%2F%2Ftracker.coppersurfer.tk%3A6969","udp%3A%2F%2Fexodus.desync.com%3A6969"],"infoHash":"5ee4de959453f9ea665cf605cd9b62a94ea95f38","infoHashBuffer":{"type":"Buffer","data":[94,228,222,149,148,83,249,234,102,92,246,5,205,155,98,169,78,169,95,56]},"announce":[],"urlList":[]}}